<svg width="46" height="46" viewBox="0 0 46 46" fill="none" xmlns="http://www.w3.org/2000/svg">
<rect width="46" height="46" fill="#1E1E1E" fill-opacity="0.16"/>
<path d="M0 3.59375C0 1.60898 1.60898 0 3.59375 0H42.4062C44.391 0 46 1.60898 46 3.59375V42.4062C46 44.391 44.391 46 42.4062 46H3.59375C1.60898 46 0 44.391 0 42.4062V3.59375Z" fill="black"/>
<path d="M24.04 19.7617C23.7764 19 23.9375 18.6191 24.5234 18.6191H27.1455C27.5947 18.6191 27.8877 18.8682 28.0244 19.3662L30.2363 27.5547C30.3438 27.9355 30.4365 28.4287 30.5146 29.0342C30.6025 29.6299 30.6465 30.0107 30.6465 30.1768H30.7344C30.8516 29.6592 30.9346 29.249 30.9834 28.9463C31.042 28.6338 31.1934 28.0332 31.4375 27.1445L33.5322 19.3662C33.6689 18.8682 33.9619 18.6191 34.4111 18.6191H37.0332C37.6094 18.6191 37.7705 19 37.5166 19.7617L32.5801 34.6152C32.0039 36.3535 31.2959 37.7109 30.4561 38.6875C29.6162 39.6641 28.4492 40.1523 26.9551 40.1523C26.1348 40.1523 25.4023 40.084 24.7578 39.9473C24.3867 39.8691 24.2451 39.6152 24.333 39.1855L24.6553 37.5742C24.7432 37.1543 24.9922 37.0078 25.4023 37.1348C25.7051 37.2324 25.9883 37.2812 26.252 37.2812C27.043 37.2812 27.6436 36.9053 28.0537 36.1533C28.4736 35.4014 28.752 34.7568 28.8887 34.2197L28.9326 34L24.04 19.7617Z" fill="url(#paint0_linear_0_1)"/>
<circle cx="19" cy="6" r="2" fill="#2C77CE"/>
<path d="M9.53809 33.6753C8.93424 33.3221 8.70638 32.8949 8.85449 32.3936L9.57227 30.0522C9.77734 29.38 10.3128 29.3117 11.1787 29.8472C11.9193 30.3143 12.7453 30.5479 13.6567 30.5479C14.91 30.5479 15.7246 30.1149 16.1006 29.249C16.488 28.3831 16.6816 26.9419 16.6816 24.9253V10.7749C16.6816 9.92041 17.0804 9.49316 17.8779 9.49316H20.4756C21.2731 9.49316 21.6719 9.92041 21.6719 10.7749V24.5835C21.6719 28.7762 20.9655 31.4935 19.5527 32.7354C18.1514 33.9658 16.2031 34.5811 13.708 34.5811C11.9648 34.5811 10.5749 34.2791 9.53809 33.6753Z" fill="url(#paint1_linear_0_1)"/>
<defs>
<linearGradient id="paint0_linear_0_1" x1="30" y1="4" x2="30" y2="43" gradientUnits="userSpaceOnUse">
<stop offset="0.157986" stop-color="#4F94B1"/>
<stop offset="0.491319" stop-color="#2249D1"/>
<stop offset="0.793403" stop-color="#FF08F5"/>
</linearGradient>
<linearGradient id="paint1_linear_0_1" x1="17" y1="-1" x2="17" y2="42" gradientUnits="userSpaceOnUse">
<stop offset="0.157986" stop-color="#4F94B1"/>
<stop offset="0.491319" stop-color="#2249D1"/>
<stop offset="0.793403" stop-color="#FF08F5"/>
</linearGradient>
</defs>
</svg>
